<?xml version="1.0" encoding="utf-8"?>
<!-- Uploaded to: SVG Repo, www.svgrepo.com, Generator: SVG Repo Mixer Tools -->
<svg  viewBox="0 0 1024 1024" className="w-16 h-16"  version="1.1" xmlns="http://www.w3.org/2000/svg"><path d="M503.53152 344.4224m-262.5024 0a262.5024 262.5024 0 1 0 525.0048 0 262.5024 262.5024 0 1 0-525.0048 0Z" fill="#FA870B" /><path d="M279.42912 725.46304v-0.04096l-3.47136 0.04096C164.33152 725.46304 73.6256 636.68224 71.71072 526.4384L71.68 522.9056C71.68 411.0336 163.14368 320.33792 275.968 320.33792c102.912 0 188.04736 75.4688 202.20928 173.62944h4.47488v-1.36192c0-127.32416 103.04512-230.77888 230.94272-232.83712l3.8912-0.03072C847.17568 259.7376 952.32 364.00128 952.32 492.5952c0 128.6144-105.14432 232.86784-234.83392 232.86784l2.60096-0.03072v0.03072H279.43936z" fill="#DFF1FB" /><path d="M257.96608 784.7424m29.63456 0l0 0q29.63456 0 29.63456 29.63456l0 93.15328q0 29.63456-29.63456 29.63456l0 0q-29.63456 0-29.63456-29.63456l0-93.15328q0-29.63456 29.63456-29.63456Z" fill="#DFF1FB" /><path d="M401.92 759.33696m29.63456 0l0 0q29.63456 0 29.63456 29.63456l0 93.15328q0 29.63456-29.63456 29.63456l0 0q-29.63456 0-29.63456-29.63456l0-93.15328q0-29.63456 29.63456-29.63456Z" fill="#DFF1FB" /><path d="M545.87392 784.7424m29.63456 0l0 0q29.63456 0 29.63456 29.63456l0 93.15328q0 29.63456-29.63456 29.63456l0 0q-29.63456 0-29.63456-29.63456l0-93.15328q0-29.63456 29.63456-29.63456Z" fill="#DFF1FB" /><path d="M689.8176 759.33696m29.63456 0l0 0q29.63456 0 29.63456 29.63456l0 93.15328q0 29.63456-29.63456 29.63456l0 0q-29.63456 0-29.63456-29.63456l0-93.15328q0-29.63456 29.63456-29.63456Z" fill="#DFF1FB" /></svg>